<?xml version="1.0" encoding="UTF-8"?>
<svg version="1.1" xmlns="http://www.w3.org/2000/svg" width="148" height="148">
<path d="M0 0 C48.84 0 97.68 0 148 0 C148 48.84 148 97.68 148 148 C99.16 148 50.32 148 0 148 C0 99.16 0 50.32 0 0 Z " fill="#7F0000" transform="translate(0,0)"/>
<path d="M0 0 C48.84 0 97.68 0 148 0 C148 48.84 148 97.68 148 148 C99.16 148 50.32 148 0 148 C0 99.16 0 50.32 0 0 Z M30.62402344 16.20288086 C26.07646314 21.23514054 25.47823392 29.18911706 24.6875 35.6875 C23.3221874 45.96352435 21.7470329 56.19958239 20.125 66.4375 C19.99658722 67.25200623 19.86817444 68.06651245 19.73587036 68.90570068 C18.37316896 77.54734144 16.98352777 86.18289774 15.5 94.8046875 C15.32378616 95.83472649 15.32378616 95.83472649 15.14401245 96.88557434 C14.59665836 100.08299002 14.04196038 103.27873483 13.47314453 106.47241211 C11.07817325 118.02807664 11.07817325 118.02807664 14 129 C36.33874801 146.48629981 74.16805666 144.40622684 100.93041992 141.17480469 C112.06943367 139.5239212 125.41938235 136.72716912 134 129 C139.02178803 120.63988374 135.35926975 109.1686014 133.60681152 100.20758057 C132.89332717 96.55759399 132.21203358 92.90157129 131.52734375 89.24609375 C131.39236481 88.5298584 131.25738586 87.81362305 131.11831665 87.07568359 C130.03230676 81.27693793 129.08869902 75.46487278 128.25 69.625 C128.13624023 68.83432129 128.02248047 68.04364258 127.90527344 67.22900391 C127.69801602 65.78728125 127.49081676 64.34555023 127.28369141 62.90380859 C126.63959743 58.5813948 125.82204618 54.29135972 125 50 C124.68501507 48.31296207 124.37263293 46.62543663 124.0625 44.9375 C123.89492187 44.04675781 123.72734375 43.15601563 123.5546875 42.23828125 C123.11182446 39.65283435 122.7321684 37.0791392 122.3828125 34.48046875 C122.26800537 33.68068604 122.15319824 32.88090332 122.03491211 32.05688477 C121.80782237 30.4672566 121.59698659 28.87519912 121.40454102 27.28100586 C120.4903852 21.07650264 118.10595287 18.46472389 113.18359375 14.55859375 C91.96031286 0.93201295 50.56915412 -0.9592754 30.62402344 16.20288086 Z " fill="#FDFCFC" transform="translate(0,0)"/>
<path d="M0 0 C2.42560244 3.63840366 3 5.62106251 3 10 C0.09768061 15.26595071 -4.56309447 18.68428098 -10 21 C-11.7890625 20.3046875 -11.7890625 20.3046875 -14 19 C-15.64072586 18.16145168 -17.28162077 17.32322327 -18.92480469 16.48950195 C-20.16214668 15.86106595 -21.39711288 15.22793424 -22.62988281 14.59057617 C-25.9821535 12.8877452 -29.09350573 11.6459656 -32.75 10.8125 C-36 9 -36 9 -36.921875 6.15625 C-37.45126091 3.09439637 -37.80775679 0.09992178 -38 -3 C-40.64 -3.33 -43.28 -3.66 -46 -4 C-46.33 -0.04 -46.66 3.92 -47 8 C-45.453125 8.268125 -43.90625 8.53625 -42.3125 8.8125 C-38.26539536 9.61964727 -35.44169836 10.67452814 -32 13 C-30.37653687 13.71432378 -28.7516912 14.42612804 -27.11328125 15.10546875 C-22.69997541 16.97357788 -18.35768553 19.00633917 -14 21 C-22.32385289 26.54923526 -31.78506599 26.50230672 -41.45678711 26.44604492 C-43.66681633 26.43757923 -45.87421177 26.46630646 -48.08398438 26.49804688 C-61.26379928 26.56284349 -74.77512061 24.45349844 -86 17 C-88.625 14.1875 -88.625 14.1875 -90 12 C-90.66 12.33 -91.32 12.66 -92 13 C-91.73187279 6.96713783 -91.15119848 2.68340341 -87 -2 C-65.84098023 -19.43707172 -20.83258177 -17.59195794 0 0 Z " fill="#A90202" transform="translate(118,18)"/>
<path d="M0 0 C2.64 0 5.28 0 8 0 C9.75747614 4.50353262 10.19294408 8.17639811 10 13 C10.68191406 13.10828125 11.36382812 13.2165625 12.06640625 13.328125 C15.54922029 14.1257868 18.64474291 15.36282329 21.9375 16.75 C23.12214844 17.23984375 24.30679688 17.7296875 25.52734375 18.234375 C33.15140275 22.11072446 33.15140275 22.11072446 35 25 C36.32986675 29.94335863 36.85433939 34.92445264 37.375 40 C37.53800145 41.38048941 37.70334511 42.76070439 37.87109375 44.140625 C38.49574926 49.432125 39.10699236 54.66296944 39 60 C40.65 60.33 42.3 60.66 44 61 C45.40454548 67.11980533 46.23268915 72.71739294 46 79 C41.39391469 81.69624506 38.28674382 82.15087022 33 82 C32.97316013 79.02077407 32.95323963 76.04178705 32.9375 73.0625 C32.92912109 72.21236328 32.92074219 71.36222656 32.91210938 70.48632812 C32.90888672 69.67744141 32.90566406 68.86855469 32.90234375 68.03515625 C32.89710693 67.2862915 32.89187012 66.53742676 32.88647461 65.76586914 C33 64 33 64 34 63 C33.90497238 60.38520762 33.75185262 57.79593444 33.5625 55.1875 C32.90584603 45.11880573 32.90524848 35.0857725 33 25 C32.27425781 24.88398437 31.54851562 24.76796875 30.80078125 24.6484375 C27.9308517 23.98399077 25.77968119 23.00693828 23.1875 21.625 C20.02254179 19.98583508 16.91659323 18.51923096 13.5625 17.3125 C10 16 10 16 7 14 C4.95415921 13.33841957 4.95415921 13.33841957 2.8125 12.875 C1.554375 12.58625 0.29625 12.2975 -1 12 C-1.08159574 7.83861737 -0.98248524 4.0527516 0 0 Z " fill="#090202" transform="translate(72,14)"/>
<path d="M0 0 C2.64 0 5.28 0 8 0 C9.75747614 4.50353262 10.19294408 8.17639811 10 13 C10.68191406 13.10828125 11.36382812 13.2165625 12.06640625 13.328125 C19.59392877 15.05213815 30.27812095 18.65919099 35 25 C35.76771615 29.34156719 35.9871042 33.59608556 36 38 C35.67 38 35.34 38 35 38 C34.67 36.35 34.34 34.7 34 33 C33.67 33 33.34 33 33 33 C33 30.36 33 27.72 33 25 C32.27425781 24.88398437 31.54851562 24.76796875 30.80078125 24.6484375 C27.9308517 23.98399077 25.77968119 23.00693828 23.1875 21.625 C20.02254179 19.98583508 16.91659323 18.51923096 13.5625 17.3125 C10 16 10 16 7 14 C4.95415921 13.33841957 4.95415921 13.33841957 2.8125 12.875 C1.554375 12.58625 0.29625 12.2975 -1 12 C-1.08159574 7.83861737 -0.98248524 4.0527516 0 0 Z " fill="#100808" transform="translate(72,14)"/>
<path d="M0 0 C2.64 0 5.28 0 8 0 C8.33 0.99 8.66 1.98 9 3 C2.25 4.125 2.25 4.125 0 3 C0 2.01 0 1.02 0 0 Z " fill="#2F2F2F" transform="translate(72,14)"/>
</svg>
